HIERARCHY
ROOT root
{
	OFFSET 0.000000 0.000000 0.000000
	CHANNELS 6 Xposition Yposition Zposition Zrotation Yrotation Xrotation
	JOINT lhip
	{
		OFFSET 0.058581 -0.082280 -0.017664
		CHANNELS 3 Zrotation Yrotation Xrotation
		JOINT lknee
		{
			OFFSET 0.043451 -0.386469 0.008037
			CHANNELS 3 Zrotation Yrotation Xrotation
			JOINT lankle
			{
				OFFSET -0.014790 -0.426874 -0.037428
				CHANNELS 3 Zrotation Yrotation Xrotation
				JOINT ltoe
				{
					OFFSET 0.041054 -0.060286 0.122042
					CHANNELS 3 Zrotation Yrotation Xrotation
					End Site
					{
						OFFSET 0.000000 0.000000 0.000000
					}
				}
			}
		}
	}
	JOINT rhip
	{
		OFFSET -0.060310 -0.090513 -0.013543
		CHANNELS 3 Zrotation Yrotation Xrotation
		JOINT rknee
		{
			OFFSET -0.043257 -0.383688 -0.004843
			CHANNELS 3 Zrotation Yrotation Xrotation
			JOINT rankle
			{
				OFFSET 0.019056 -0.420046 -0.034562
				CHANNELS 3 Zrotation Yrotation Xrotation
				JOINT rtoe
				{
					OFFSET -0.034840 -0.062106 0.130323
					CHANNELS 3 Zrotation Yrotation Xrotation
					End Site
					{
						OFFSET 0.000000 0.000000 0.000000
					}
				}
			}
		}
	}
	JOINT lowerback
	{
		OFFSET 0.004439 0.124404 -0.038385
		CHANNELS 3 Zrotation Yrotation Xrotation
		JOINT upperback
		{
			OFFSET 0.004488 0.137956 0.026820
			CHANNELS 3 Zrotation Yrotation Xrotation
			JOINT chest
			{
				OFFSET -0.002265 0.056032 0.002855
				CHANNELS 3 Zrotation Yrotation Xrotation
				JOINT lowerneck
				{
					OFFSET -0.013390 0.211636 -0.033468
					CHANNELS 3 Zrotation Yrotation Xrotation
					JOINT upperneck
					{
						OFFSET 0.010113 0.088937 0.050410
						CHANNELS 3 Zrotation Yrotation Xrotation
						End Site
						{
							OFFSET 0.000000 0.000000 0.000000
						}
					}
				}
				JOINT lclavicle
				{
					OFFSET 0.071702 0.114000 -0.018898
					CHANNELS 3 Zrotation Yrotation Xrotation
					JOINT lshoulder
					{
						OFFSET 0.122921 0.045205 -0.019046
						CHANNELS 3 Zrotation Yrotation Xrotation
						JOINT lelbow
						{
							OFFSET 0.255332 -0.015649 -0.022946
							CHANNELS 3 Zrotation Yrotation Xrotation
							JOINT lwrist
							{
								OFFSET 0.265709 0.012698 -0.007375
								CHANNELS 3 Zrotation Yrotation Xrotation
								End Site
								{
									OFFSET 0.000000 0.000000 0.000000
								}
							}
						}
					}
				}
				JOINT rclavicle
				{
					OFFSET -0.082954 0.112472 -0.023707
					CHANNELS 3 Zrotation Yrotation Xrotation
					JOINT rshoulder
					{
						OFFSET -0.113228 0.046853 -0.008472
						CHANNELS 3 Zrotation Yrotation Xrotation
						JOINT relbow
						{
							OFFSET -0.260127 -0.014369 -0.031269
							CHANNELS 3 Zrotation Yrotation Xrotation
							JOINT rwrist
							{
								OFFSET -0.269108 0.006794 -0.006027
								CHANNELS 3 Zrotation Yrotation Xrotation
								End Site
								{
									OFFSET 0.000000 0.000000 0.000000
								}
							}
						}
					}
				}
			}
		}
	}
}
MOTION
Frames: 11
Frame Time: 0.033333
0.024627 -0.123226 0.818295 -37.111838 0.273407 87.239851 23.772928 15.983891 -41.836321 -9.882831 11.292855 45.291059 -0.448475 4.069225 -11.179904 0.000000 -0.000000 0.000000 -32.972206 -10.220910 -15.837694 2.513607 7.140297 72.297879 17.481357 -1.277267 -2.071059 0.000000 -0.000000 0.000000 0.168755 5.026682 33.834910 -1.339158 1.435583 -0.051305 -0.227518 0.350414 -0.236749 -0.199601 3.469592 -12.427363 3.166554 15.526409 -0.892959 -35.026947 -1.449092 3.410351 -35.611369 1.372137 2.355989 59.118673 -72.879399 -51.805395 38.192351 -4.799945 -17.386219 30.528698 9.162894 2.547066 43.571573 5.897605 2.554321 -31.198753 38.922285 -49.212344 -18.046180 10.796809 -1.634488 
0.025288 -0.228222 0.823343 -36.945509 0.531148 85.747769 22.283843 13.453837 -40.551811 -8.313889 14.009546 57.443909 3.388560 8.060228 -18.027292 0.000000 -0.000000 0.000000 -29.622206 -8.473310 -19.868045 -0.512000 5.762678 77.223591 -0.762249 -15.057302 -14.742437 0.000000 -0.000000 0.000000 -0.257388 4.697235 32.522081 -0.494568 1.154092 -0.665813 -0.085973 -0.578446 1.202689 -0.328093 4.045397 -11.370735 3.057715 16.269388 0.028930 -32.441644 -1.868846 4.043017 -30.128371 2.228177 2.502969 55.723806 -75.277830 -48.725344 39.786755 -4.227274 -17.907610 30.991146 8.323834 2.976957 44.127414 4.095500 3.419901 -32.072017 35.698611 -50.275908 -19.813856 9.060827 -1.538171 
0.031180 -0.330756 0.837605 -38.833646 -0.681538 82.951631 17.399330 12.563861 -33.146727 -7.895417 13.465105 62.762494 4.391161 12.299258 -27.661821 0.000000 -0.000000 0.000000 -27.431555 -10.594653 -25.795558 -2.072947 -0.426927 79.273424 5.020376 -10.330633 -18.152668 0.000000 -0.000000 0.000000 -0.360049 2.704493 35.223522 -1.131415 1.372059 -2.418876 -0.841397 -0.522887 2.151559 -1.250650 7.778750 -10.006784 0.231349 15.440457 0.041733 -29.994580 -1.882141 2.830197 -26.902154 3.311174 2.462867 46.908166 -73.840717 -39.363229 36.895380 -8.141758 -15.474425 29.686973 7.527560 1.474574 43.886591 2.119121 3.670868 -28.384129 34.181589 -45.574774 -19.224265 9.472496 -1.434902 
0.034914 -0.423157 0.852367 -40.620174 -0.655434 82.561294 15.090935 13.636123 -29.888576 -7.435944 15.311598 69.363152 2.850052 12.156017 -26.792911 0.000000 -0.000000 0.000000 -20.091564 -12.212850 -34.690724 -0.792001 -9.464317 78.349940 8.413585 -8.521545 -20.295366 0.000000 -0.000000 0.000000 -0.352816 0.153928 35.940451 -1.249665 1.964035 -3.789855 -1.095289 -0.765526 2.987801 -3.334292 10.479095 -8.008345 -2.419174 16.761057 -1.567023 -28.388060 -0.496693 1.171325 -25.585629 3.799864 2.121350 43.441701 -70.735075 -37.068044 35.650819 -8.923910 -13.762691 28.281102 6.000109 0.677835 41.740361 1.965993 3.788220 -24.081759 35.463349 -39.473003 -18.492702 9.624972 -0.723934 
0.036632 -0.509563 0.866746 -41.908257 -2.578956 82.796488 13.935400 13.738687 -31.043828 -7.638671 17.452294 78.172418 -1.247496 6.769643 -11.430858 0.000000 -0.000000 0.000000 -12.749544 -13.115949 -41.764223 -1.553567 -17.499005 71.700074 2.730941 -6.276338 -20.597410 0.000000 -0.000000 0.000000 -2.303144 -0.147208 37.227886 -1.764620 0.810657 -4.379480 -0.776773 -1.308569 2.896171 -5.884051 13.313653 -6.134623 -3.320489 17.600736 -5.685220 -26.927254 0.992543 -0.676948 -24.143509 4.571558 1.329849 48.599704 -67.557212 -46.571608 32.434833 -8.064673 -14.475611 26.868370 4.927633 1.913767 40.065330 1.861260 3.508730 -22.207035 40.273339 -34.832894 -17.911392 9.328574 -1.437803 
0.039712 -0.596456 0.873490 -42.460832 -5.084147 83.247127 12.534514 13.407360 -32.478307 -8.628601 17.994964 80.140488 1.231948 7.484160 -8.718594 0.000000 -0.000000 0.000000 -7.177526 -12.589136 -46.010624 3.921964 -20.499677 59.043089 7.640028 0.703030 -15.953312 0.000000 -0.000000 0.000000 -3.895790 -0.281043 38.452530 -2.798517 0.043535 -5.419619 -0.906596 -1.739734 2.870213 -7.828795 13.064178 -4.848535 -3.524336 19.069069 -8.075720 -25.443534 1.673303 -0.905240 -21.693082 4.396045 -0.625934 51.699009 -64.582808 -53.055613 31.537789 -6.913608 -15.256153 23.854439 3.091817 2.228472 40.202342 0.466483 3.932678 -21.695985 45.300964 -30.992311 -16.509354 9.609812 -4.424427 
0.040171 -0.682728 0.870246 -41.164196 -6.742403 82.820609 12.776378 13.092611 -33.588709 -6.715166 15.809378 76.124576 1.967630 10.534119 -12.269821 0.000000 -0.000000 0.000000 -4.296175 -10.138762 -47.384447 7.995282 -16.094177 47.733982 14.197843 7.655174 -10.146743 0.000000 -0.000000 0.000000 -4.587165 -0.227741 40.193669 -3.588546 -0.479722 -5.942441 -0.781719 -2.047482 3.218064 -9.137964 13.616525 -4.146604 -2.706970 18.337091 -9.233828 -23.400284 1.855737 -2.878937 -18.992320 3.260250 -1.794377 52.418343 -62.362912 -55.596639 29.983551 -6.841883 -14.792010 21.305749 1.003136 1.948464 39.542142 -2.752817 4.347194 -21.974864 50.143226 -30.286140 -17.314088 9.732814 -6.786728 
0.036218 -0.768133 0.855449 -38.131415 -8.541453 81.134980 14.670748 12.861210 -34.046520 -9.732816 12.316228 65.880309 0.081259 8.684537 -12.811519 0.000000 -0.000000 0.000000 -4.881161 -7.710642 -46.417486 5.561135 -12.843208 42.187044 14.775178 4.671296 -7.906336 0.000000 -0.000000 0.000000 -5.538550 0.098084 42.140990 -4.192666 -1.206990 -5.949974 -0.842956 -2.405801 3.875595 -9.284553 14.324153 -2.349974 -1.121634 17.054818 -10.971992 -21.968537 1.191810 -3.101134 -14.451754 2.540629 -3.304881 54.565466 -60.289380 -60.260949 29.396184 -7.305799 -15.429008 19.074323 0.394203 1.578550 41.569266 -6.084396 5.527567 -25.145288 49.224058 -34.719665 -19.404723 9.163769 -9.339115 
0.032793 -0.856405 0.830723 -35.402572 -10.113969 79.033411 16.858458 12.987499 -33.192643 -12.481727 8.456896 51.837940 -1.735103 8.990257 -8.812156 0.000000 -0.000000 0.000000 -6.482325 -7.980169 -50.281226 6.390935 -5.547576 56.270743 -0.095052 0.004250 -8.086730 0.000000 -0.000000 0.000000 -6.675525 -0.115850 43.044393 -4.943141 -1.146917 -4.989000 -1.254691 -2.977739 4.438330 -9.128326 12.913750 -2.969356 0.840757 16.928380 -10.106015 -21.741715 0.919267 -4.486786 -10.124649 3.061186 -5.432355 55.997695 -59.454455 -60.825313 29.499924 -7.410157 -14.991313 18.621156 1.121475 2.101180 44.328305 -6.486858 3.930435 -27.152566 44.220329 -38.936816 -18.348405 7.232262 -12.659798 
0.034380 -0.943065 0.808246 -35.151818 -8.027803 76.513945 21.233533 13.199886 -29.667275 -12.819445 1.300409 35.474916 -7.481302 6.992299 -6.619508 0.000000 -0.000000 0.000000 -10.619194 -7.160387 -51.311527 3.092332 -8.694557 68.311882 0.940775 -2.070810 -10.598812 0.000000 -0.000000 0.000000 -5.557530 -1.328730 46.360357 -5.021530 0.738045 -3.497522 -1.438101 -2.182387 2.758658 -9.047670 13.637830 -2.489637 0.189795 15.697508 -11.937433 -24.151269 0.237608 -5.359396 -9.042978 2.436017 -6.499590 60.946863 -56.404989 -64.122514 29.465118 -8.042000 -14.035354 21.282416 2.990109 1.229544 43.050954 -5.639935 1.664919 -27.292391 37.281930 -43.636251 -21.077026 6.246485 -12.773043 
0.036769 -1.028384 0.785844 -34.695346 -5.701468 75.268672 22.199209 15.680602 -29.911711 -10.283567 -0.737761 26.591905 -8.840951 5.861406 -4.505936 0.000000 -0.000000 0.000000 -11.633104 -10.279526 -50.628247 3.101045 -8.176153 75.865503 -1.912774 -4.527305 -17.901144 0.000000 -0.000000 0.000000 -5.021821 -1.174569 46.683232 -4.244639 1.350218 -2.132656 -0.475161 -1.917788 2.352999 -6.836012 14.200973 -3.807953 -0.074446 15.586157 -7.846871 -26.463018 0.375894 -5.140218 -12.380615 0.922000 -7.492342 65.382821 -54.906857 -67.240737 32.052679 -6.240899 -16.526886 24.057187 5.101974 1.406090 41.468061 -1.701371 -0.373059 -24.958892 28.443571 -45.733945 -23.528528 6.546886 -9.676192 
